<svg xmlns="http://www.w3.org/2000/svg" viewBox="0 0 1200 630" width="1200" height="630">
  <defs>
    <linearGradient id="bgGradient" x1="0%" y1="0%" x2="100%" y2="100%">
      <stop offset="0%" style="stop-color:#191724"/>
      <stop offset="100%" style="stop-color:#26233a"/>
    </linearGradient>
    <filter id="glow" x="-50%" y="-50%" width="200%" height="200%">
      <feGaussianBlur stdDeviation="4" result="coloredBlur"/>
      <feMerge>
        <feMergeNode in="coloredBlur"/>
        <feMergeNode in="SourceGraphic"/>
      </feMerge>
    </filter>
  </defs>
  
  <rect width="1200" height="630" fill="url(#bgGradient)"/>
  
  <g transform="translate(600, 180)">
    <text text-anchor="middle" font-family="Inter, system-ui, sans-serif" font-size="64" font-weight="700" fill="#e0def4">
      Git Sonar
    </text>
    <text y="50" text-anchor="middle" font-family="Inter, system-ui, sans-serif" font-size="24" fill="#908caa">
      Visualize your Git history as a beautiful interactive graph
    </text>
  </g>
  
  <g transform="translate(200, 350)">
    <g filter="url(#glow)">
      <circle cx="100" cy="50" r="20" fill="#9ccfd8"/>
      <circle cx="100" cy="130" r="20" fill="#9ccfd8"/>
      <line x1="100" y1="70" x2="100" y2="110" stroke="#9ccfd8" stroke-width="4"/>
      
      <circle cx="220" cy="210" r="18" fill="#c4a7e7"/>
      <circle cx="340" cy="210" r="18" fill="#f6c177"/>
      <path d="M 100 150 Q 100 180 220 192" stroke="#c4a7e7" stroke-width="3" fill="none"/>
      <path d="M 100 150 Q 100 180 340 192" stroke="#f6c177" stroke-width="3" fill="none"/>
      
      <polygon points="280,250 295,262 280,274 265,262" fill="#9ccfd8" transform="translate(-180, 0)"/>
      <path d="M 220 228 Q 220 240 100 230" stroke="#9ccfd8" stroke-width="3" fill="none"/>
      <path d="M 340 228 Q 340 240 100 230" stroke="#9ccfd8" stroke-width="3" fill="none"/>
      
      <circle cx="100" cy="290" r="15" fill="#9ccfd8"/>
      <line x1="100" y1="274" x2="100" y2="275" stroke="#9ccfd8" stroke-width="3"/>
    </g>
    
    <rect x="70" y="10" width="60" height="24" rx="6" fill="#26233a" stroke="#9ccfd8" stroke-width="1"/>
    <text x="100" y="28" text-anchor="middle" font-family="Inter, sans-serif" font-size="12" font-weight="600" fill="#9ccfd8">main</text>
    
    <rect x="175" y="170" width="90" height="22" rx="5" fill="#26233a" stroke="#c4a7e7" stroke-width="1"/>
    <text x="220" y="187" text-anchor="middle" font-family="Inter, sans-serif" font-size="11" fill="#c4a7e7">feature-auth</text>
    
    <rect x="295" y="170" width="90" height="22" rx="5" fill="#26233a" stroke="#f6c177" stroke-width="1"/>
    <text x="340" y="187" text-anchor="middle" font-family="Inter, sans-serif" font-size="11" fill="#f6c177">feature-api</text>
  </g>
  
  <g transform="translate(500, 300)">
    <rect x="0" y="0" width="200" height="180" rx="12" fill="#1f1d2e" stroke="#21202e" stroke-width="2"/>
    <rect x="0" y="0" width="200" height="40" rx="12" fill="#26233a"/>
    <rect x="0" y="20" width="200" height="20" fill="#26233a"/>
    
    <circle cx="20" cy="20" r="6" fill="#eb6f92"/>
    <circle cx="40" cy="20" r="6" fill="#f6c177"/>
    <circle cx="60" cy="20" r="6" fill="#9ccfd8"/>
    
    <text x="15" y="70" font-family="JetBrains Mono, monospace" font-size="11" fill="#908caa">Commit: a1b2c3d</text>
    <text x="15" y="95" font-family="Inter, sans-serif" font-size="12" fill="#e0def4">Fix critical bug</text>
    <text x="15" y="120" font-family="Inter, sans-serif" font-size="11" fill="#6e6a86">Alice • 2h ago</text>
    
    <rect x="15" y="140" width="60" height="24" rx="4" fill="#31748f"/>
    <text x="45" y="157" text-anchor="middle" font-family="Inter, sans-serif" font-size="11" font-weight="600" fill="#191724">View</text>
  </g>
</svg>